<?xml version="1.0" encoding="utf-8"?>
<svg version="1.1" xmlns:xlink="http://www.w3.org/1999/xlink" width="16px" height="16px" xmlns="http://www.w3.org/2000/svg">
  <g transform="matrix(1 0 0 1 -124 0 )">
    <path d="M 132 0  C 136.48 0  140 3.52  140 8  C 140 12.48  136.48 16  132 16  C 127.52 16  124 12.48  124 8  C 124 3.52  127.52 0  132 0  Z " fill-rule="nonzero" fill="#ffffff" stroke="none" />
    <path d="M 132 0.5  C 136.2 0.5  139.5 3.8  139.5 8  C 139.5 12.2  136.2 15.5  132 15.5  C 127.8 15.5  124.5 12.2  124.5 8  C 124.5 3.8  127.8 0.5  132 0.5  Z " stroke-width="1" stroke="#797979" fill="none" />
  </g>
</svg>