<?xml version="1.0" encoding="utf-8"?>
<svg version="1.1" xmlns:xlink="http://www.w3.org/1999/xlink" width="101px" height="61px" xmlns="http://www.w3.org/2000/svg">
  <defs>
    <linearGradient gradientUnits="userSpaceOnUse" x1="50" y1="0" x2="50" y2="60" id="LinearGradient2">
      <stop id="Stop3" stop-color="#ffffff" offset="0" />
      <stop id="Stop4" stop-color="#f2f2f2" offset="0" />
      <stop id="Stop5" stop-color="#e4e4e4" offset="1" />
      <stop id="Stop6" stop-color="#ffffff" offset="1" />
    </linearGradient>
    <mask fill="white" id="clip7">
      <path d="M 100 0  L 100 60  L 0 60  L 0 12  L 12 0  L 100 0  Z " fill-rule="evenodd" />
    </mask>
  </defs>
  <g transform="matrix(1 0 0 1 -64 -1134 )">
    <path d="M 100 0  L 100 60  L 0 60  L 0 12  L 12 0  L 100 0  Z M 0 13.5  L 13.5 0  L 13.5 13.5  L 0 13.5  Z " fill-rule="nonzero" fill="url(#LinearGradient2)" stroke="none" transform="matrix(1 0 0 1 64 1134 )" />
    <path d="M 100 0  L 100 60  L 0 60  L 0 12  L 12 0  L 100 0  Z " stroke-width="2" stroke="#797979" fill="none" transform="matrix(1 0 0 1 64 1134 )" mask="url(#clip7)" />
    <path d="M 13.5 0  L 13.5 13.5  L 0 13.5  " stroke-width="1" stroke="#797979" fill="none" transform="matrix(1 0 0 1 64 1134 )" mask="url(#clip7)" />
  </g>
</svg>